HIERARCHY
ROOT RootJoint
{
    OFFSET   0.000000   0.000000   0.000000
    CHANNELS 6 Xposition Yposition Zposition Xrotation Yrotation Zrotation
    JOINT pelvis_lowerback
    {
        OFFSET   0.000000   0.093605   0.000000
        CHANNELS 3 Xrotation Yrotation Zrotation
        JOINT lowerback_torso
        {
            OFFSET   0.000000   0.100000   0.000000
            CHANNELS 3 Xrotation Yrotation Zrotation
            JOINT torso_head
            {
                OFFSET   0.000000   0.282350   0.000000
                CHANNELS 3 Xrotation Yrotation Zrotation
                End Site
                {
                    OFFSET   0.000000   0.192650   0.000000
                }
            }
            JOINT rTorso_Clavicle
            {
                OFFSET  -0.001000   0.157500   0.000000
                CHANNELS 3 Xrotation Yrotation Zrotation
                JOINT rShoulder
                {
                    OFFSET  -0.117647   0.000000   0.000000
                    CHANNELS 3 Xrotation Yrotation Zrotation
                    JOINT rElbow
                    {
                        OFFSET  -0.245000   0.000000   0.000000
                        CHANNELS 3 Xrotation Yrotation Zrotation
                        JOINT rWrist
                        {
                            OFFSET  -0.240000   0.000000   0.000000
                            CHANNELS 3 Xrotation Yrotation Zrotation
                            End Site
                            {
                                OFFSET  -0.116353  -0.002500   0.000000
                            }
                        }
                    }
                }
            }
            JOINT lTorso_Clavicle
            {
                OFFSET   0.001000   0.157500   0.000000
                CHANNELS 3 Xrotation Yrotation Zrotation
                JOINT lShoulder
                {
                    OFFSET   0.117647   0.000000   0.000000
                    CHANNELS 3 Xrotation Yrotation Zrotation
                    JOINT lElbow
                    {
                        OFFSET   0.245000   0.000000   0.000000
                        CHANNELS 3 Xrotation Yrotation Zrotation
                        JOINT lWrist
                        {
                            OFFSET   0.240000   0.000000   0.000000
                            CHANNELS 3 Xrotation Yrotation Zrotation
                            End Site
                            {
                                OFFSET   0.116353  -0.002500   0.000000
                            }
                        }
                    }
                }
            }
        }
    }
    JOINT rHip
    {
        OFFSET  -0.100000  -0.051395   0.000000
        CHANNELS 3 Xrotation Yrotation Zrotation
        JOINT rKnee
        {
            OFFSET   0.000000  -0.410000   0.000000
            CHANNELS 3 Xrotation Yrotation Zrotation
            JOINT rAnkle
            {
                OFFSET   0.000000  -0.390000   0.000000
                CHANNELS 3 Xrotation Yrotation Zrotation
                JOINT rToeJoint
                {
                    OFFSET   0.000000  -0.050000   0.130000
                    CHANNELS 3 Xrotation Yrotation Zrotation
                    End Site
                    {
                        OFFSET  -0.010000   0.002000   0.060000
                    }
                }
            }
        }
    }
    JOINT lHip
    {
        OFFSET   0.100000  -0.051395   0.000000
        CHANNELS 3 Xrotation Yrotation Zrotation
        JOINT lKnee
        {
            OFFSET   0.000000  -0.410000   0.000000
            CHANNELS 3 Xrotation Yrotation Zrotation
            JOINT lAnkle
            {
                OFFSET   0.000000  -0.390000   0.000000
                CHANNELS 3 Xrotation Yrotation Zrotation
                JOINT lToeJoint
                {
                    OFFSET   0.000000  -0.050000   0.130000
                    CHANNELS 3 Xrotation Yrotation Zrotation
                    End Site
                    {
                        OFFSET   0.010000   0.002000   0.060000
                    }
                }
            }
        }
    }
}
MOTION
Frames: 17
Frame Time:   0.008333
 -2.376719   0.925631   3.975860   0.000000   0.000000   0.000000   0.000000   0.000000   0.000000   0.000000   0.000000   0.000000   0.000000   0.000000   0.000000   0.000000   0.000000   0.000000   0.000000   0.000000   0.000000   0.000000   0.000000   0.000000   0.000000   0.000000   0.000000   0.000000   0.000000   0.000000   0.000000   0.000000   0.000000   0.000000   0.000000   0.000000   0.000000   0.000000   0.000000   0.000000   0.000000   0.000000   0.000000   0.000000   0.000000   0.000000   0.000000   0.000000   0.000000   0.000000   0.000000   0.000000   0.000000   0.000000   0.000000   0.000000   0.000000   0.000000   0.000000   0.000000   0.000000   0.000000   0.000000
 -2.376782   0.926198   3.976078  -0.140849   0.160353  -0.101329   0.142120  -0.018555   0.069826   0.081607  -0.153140   0.053466  -0.156229   0.138325   0.073060   0.166012  -0.300634   0.245900   0.331070   0.061243   2.173365   0.015857   0.743060  -0.003827   0.096192  -0.161789  -2.895661   0.243263   0.293639  -0.391754   0.744820  -0.029918  -2.083332   0.020204  -0.939487   0.008899   0.218538   0.207581   2.911877   0.063647  -0.064238   0.017564   0.413873   0.000305   0.000345  -0.512804  -0.244495   0.034457  -0.131479  -0.000056   0.000170  -0.025266  -0.273272   0.242779   0.643337  -0.000799  -0.000628  -0.887859   0.019542   0.093758   0.227270  -0.000465  -0.000185
 -2.376879   0.927174   3.976455  -0.301096   0.340856  -0.213178   0.265610  -0.046134   0.140606   0.179062  -0.321104   0.116734  -0.294074   0.272305   0.153731   0.329304  -0.604513   1.214087   0.653575   0.129603   4.923356   0.036017   1.454225  -0.006436   0.217534  -0.131006  -5.066946   0.484020   0.563339  -1.512001   1.474324  -0.102956  -4.753769   0.046272  -1.843312   0.015318   0.476746   0.173266   5.101071   0.147902  -0.124222  -0.040771   0.863151   0.000922   0.000737  -0.993685  -0.475482   0.063927  -0.290276  -0.000240   0.000288  -0.000882  -0.534048   0.597816   1.324595  -0.002102  -0.000942  -1.720006   0.037591   0.182456   0.391061  -0.000847  -0.000235
 -2.376986   0.928146   3.976951  -0.449416   0.520616  -0.319374   0.362929  -0.082642   0.204290   0.261414  -0.491333   0.175683  -0.421794   0.397628   0.231716   0.488548  -0.889893   2.626157   0.966928   0.208291   8.049995   0.055341   2.117127  -0.007912   0.337924  -0.066307  -6.400633   0.715014   0.799189  -3.071354   2.185514  -0.218944  -7.805876   0.071529  -2.689674   0.019451   0.730302   0.077755   6.445662   0.227528  -0.180889  -0.178273   1.294110   0.001673   0.001024  -1.442647  -0.692067   0.089046  -0.443802  -0.000486   0.000353   0.053039  -0.774357   1.026236   1.979647  -0.003541  -0.001021  -2.496617   0.054829   0.266236   0.535061  -0.001188  -0.000239
 -2.377096   0.928817   3.977536  -0.581316   0.689673  -0.417643   0.438206  -0.125111   0.260124   0.325495  -0.659478   0.227686  -0.542330   0.514496   0.305239   0.645703  -1.156070   4.288999   1.272980   0.299814  11.428953   0.071660   2.733733  -0.008573   0.452059  -0.003827  -7.111158   0.937377   1.006351  -4.875316   2.880324  -0.380010 -11.112965   0.093102  -3.480312   0.021935   0.973324  -0.034711   7.160320   0.296578  -0.234762  -0.383135   1.697671   0.002430   0.001180  -1.862246  -0.895177   0.110325  -0.591079  -0.000754   0.000391   0.128210  -0.995918   1.508796   2.599906  -0.004929  -0.000981  -3.221945   0.071066   0.345317   0.661112  -0.001459  -0.000228
 -2.377205   0.928968   3.978186  -0.698011   0.842802  -0.508333   0.495689  -0.171385   0.308513   0.373828  -0.823404   0.272676  -0.655940   0.623423   0.374142   0.801624  -1.405182   6.074024   1.572437   0.404490  14.975207   0.084216   3.306675  -0.008668   0.558310   0.046483  -7.400256   1.151465   1.190135  -6.795393   3.558620  -0.586157 -14.588877   0.109941  -4.218162   0.023268   1.204231  -0.149906   7.447837   0.354300  -0.285912  -0.642232   2.073424   0.003115   0.001219  -2.254431  -1.085587   0.128277  -0.731171  -0.001011   0.000414   0.220327  -1.200422   2.031532   3.185703  -0.006163  -0.000892  -3.899354   0.086191   0.419918   0.771962  -0.001656  -0.000214
 -2.377348   0.928427   3.978881  -0.802004   0.978489  -0.589579   0.539110  -0.219637   0.343860   0.409888  -0.981463   0.298304  -0.762685   0.724826   0.442193   0.957064  -1.640237   7.902969   1.865579   0.521601  18.635917   0.092972   3.838448  -0.008385   0.656159   0.080478  -7.410008   1.358853   1.355795  -8.790435   4.191130  -0.826204 -18.046830   0.121580  -4.906802   0.023640   1.423323  -0.265620   7.389825   0.401475  -0.334381  -0.942773   2.422820   0.003679   0.001170  -2.621000  -1.264066   0.143308  -0.863807  -0.001236   0.000430   0.326061  -1.389336   2.583747   3.738823  -0.007212  -0.000786  -4.531920   0.100118   0.490187   0.870025  -0.001786  -0.000202
 -2.377496   0.926447   3.979068  -0.746798   1.085105  -0.697956   0.585074  -0.241705   0.462670   0.340464  -1.111528   0.246484  -1.040025   0.682831   0.475551   1.121820  -1.780546   9.100900   2.283357   0.608476  22.204062   0.103644   4.539011  -0.009832   0.670519   0.013865  -6.357126   1.631975   1.495491  -9.990300   4.635635  -1.129345 -21.477144   0.131899  -5.733577   0.024488   1.549431  -0.386103   6.246201   0.181637  -0.657191  -1.154923   2.916152   0.004279  -0.000100  -2.772372  -1.528987   0.396912  -0.798213  -0.000944   0.000068   0.339043  -1.438812   3.095431   3.656381  -0.005482  -0.000697  -4.827856   0.134197   0.597610   0.942441  -0.001751  -0.000099
 -2.377635   0.923255   3.978975  -0.671495   1.222694  -0.805972   0.671215  -0.271862   0.582104   0.274852  -1.239553   0.200886  -1.313664   0.638039   0.498023   1.265548  -1.871673  10.036110   2.658391   0.737403  25.416798   0.107260   5.206065  -0.010989   0.697805   0.013934  -5.361488   1.870811   1.584310 -10.895261   5.022996  -1.458783 -24.538543   0.133984  -6.520948   0.024750   1.677998  -0.593823   5.191436  -0.050475  -0.976661  -1.313906   3.379973   0.004446  -0.000916  -2.908388  -1.780375   0.632833  -0.710395  -0.000726  -0.000280   0.273438  -1.483101   3.539834   3.466974  -0.003837  -0.000762  -5.108263   0.166012   0.698128   1.012486  -0.001667   0.000004
 -2.377655   0.922477   3.979100  -0.665950   1.328272  -0.422111   0.786903  -0.285580   0.306106   0.240402  -1.349177  -0.000459  -1.560584   0.596389   0.504211   1.391389  -1.930456  11.040924   2.992799   0.894690  28.437998   0.107729   5.833477  -0.011538   0.731279   0.040212  -4.579299   2.084498   1.648793 -11.760255   5.362388  -1.788877 -27.327295   0.132050  -7.252684   0.024190   1.802055  -0.784619   4.433187  -0.183067  -1.269149  -1.872867   3.813352   0.004155  -0.001525  -3.025844  -2.018222   0.850104  -0.561176  -0.000627  -0.000787   0.104281  -1.429753   3.151132   3.682906  -0.003051  -0.000278  -4.789632   0.272774   0.631204   1.119648  -0.001271   0.000258
 -2.378059   0.922148   3.979339  -0.633076   1.368635  -0.228289   0.871219  -0.270789   0.231019   0.199166  -1.427747  -0.148897  -1.789991   0.558358   0.499637   1.503085  -1.971703  11.854026   3.292594   1.066677  31.207925   0.104934   6.425702  -0.011580   0.767049   0.101044  -3.836671   2.287313   1.713857 -12.489753   5.666242  -2.110079 -29.916381   0.126594  -7.939931   0.023099   1.920406  -0.990141   3.718904  -0.327132  -1.540572  -2.098094   4.222048   0.003354  -0.002092  -3.137086  -2.239294   1.053191  -0.442204  -0.000676  -0.001109   0.010911  -1.435704   2.970671   3.798914  -0.002455  -0.000177  -4.773626   0.311990   0.676809   1.224077  -0.001072   0.000279
 -2.378715   0.921968   3.979603  -0.570668   1.396654  -0.102100   0.942199  -0.253437   0.214282   0.149655  -1.493920  -0.252109  -2.007367   0.522560   0.501604   1.601847  -2.001864  12.524266   3.560792   1.244255  33.737327   0.099880   6.981874  -0.011332   0.802620   0.179523  -3.206236   2.475597   1.773965 -13.092334   5.936921  -2.418925 -32.286320   0.118716  -8.582259   0.021698   2.032331  -1.194874   3.102307  -0.477990  -1.797052  -2.167008   4.600404   0.002409  -0.002442  -3.242223  -2.444529   1.243737  -0.346667  -0.000747  -0.001255  -0.062649  -1.458159   2.874989   3.841026  -0.001975  -0.000137  -4.827625   0.338913   0.737586   1.300458  -0.000919   0.000248
 -2.379536   0.921832   3.979864  -0.486476   1.431382   0.005996   1.009233  -0.238179   0.219057   0.099065  -1.554713  -0.331828  -2.212015   0.488834   0.506328   1.689817  -2.024937  13.079846   3.801024   1.422394  36.050989   0.093456   7.502933  -0.010937   0.837013   0.265669  -2.690809   2.648049   1.827129 -13.584185   6.177117  -2.715135 -34.451163   0.109472  -9.182400   0.020128   2.138318  -1.393712   2.596886  -0.625215  -2.038113  -2.157920   4.950806   0.001490  -0.002575  -3.340681  -2.635558   1.421969  -0.264495  -0.000810  -0.001294  -0.134993  -1.485170   2.808923   3.840561  -0.001580  -0.000110  -4.909646   0.360876   0.800818   1.365638  -0.000795   0.000218
 -2.380439   0.921510   3.980096  -0.444318   1.442626   0.199712   1.167769  -0.230560   0.105399   0.010725  -1.558321  -0.363290  -2.354988   0.387455   0.489850   1.714442  -2.140807  13.249485   4.047218   1.652458  37.829471   0.086409   8.146352  -0.010726   0.841423   0.339132  -1.435742   2.815266   1.880443 -13.631632   6.334828  -3.054982 -36.289744   0.100388  -9.923780   0.019038   2.214176  -1.524257   1.528258  -0.611717  -2.223818  -2.211377   4.808244   0.001389  -0.001855  -3.492873  -2.708726   1.516920  -0.048528  -0.001122  -0.001482  -0.178349  -1.468544   2.663019   3.861075  -0.001273  -0.000082  -4.969111   0.369034   0.816770   1.376479  -0.000642   0.000178
 -2.381413   0.921561   3.980344  -0.399783   1.503760   0.196538   1.323225  -0.244406   0.173124  -0.072105  -1.575915  -0.333937  -2.482098   0.290825   0.480927   1.718498  -2.238715  13.130381   4.260322   1.873348  39.267846   0.077016   8.754164  -0.010301   0.847721   0.466694  -0.479209   2.942813   1.904864 -13.482738   6.456566  -3.386948 -37.858482   0.089311 -10.628632   0.017690   2.289274  -1.720448   0.686995  -0.613657  -2.365265  -2.157276   4.762781   0.001135  -0.001453  -3.484175  -2.749167   1.580870   0.135617  -0.001089  -0.001373  -0.201617  -1.463481   2.731709   3.846641  -0.001010  -0.000075  -5.091127   0.370697   0.846852   1.395752  -0.000530   0.000154
 -2.382487   0.921633   3.980598  -0.336675   1.549775   0.184102   1.464374  -0.252023   0.215026  -0.157393  -1.591561  -0.294494  -2.600093   0.201134   0.481968   1.707143  -2.318924  12.825681   4.446164   2.085345  40.476408   0.066831   9.326303  -0.009683   0.855063   0.616516   0.181437   3.045968   1.917428 -13.148611   6.556202  -3.696213 -39.188525   0.077558 -11.290322   0.016267   2.361609  -1.935246   0.111286  -0.619303  -2.522996  -2.091798   4.692934   0.000947  -0.001097  -3.530052  -2.810383   1.675033   0.307364  -0.001104  -0.001347  -0.223861  -1.458234   2.815289   3.801144  -0.000781  -0.000082  -5.227915   0.371330   0.879249   1.409085  -0.000436   0.000130
 -2.383630   0.921709   3.980856  -0.259580   1.576312   0.167207   1.597111  -0.256348   0.244705  -0.243306  -1.604383  -0.261884  -2.710860   0.117664   0.483046   1.683236  -2.384163  12.402740   4.608717   2.287111  41.501166   0.056824   9.863041  -0.008945   0.862560   0.773774   0.605179   3.131020   1.923491 -12.698014   6.639375  -3.981206 -40.326637   0.066188 -11.908287   0.014883   2.431235  -2.141996  -0.235109  -0.632732  -2.673973  -2.017175   4.607712   0.000809  -0.000789  -3.583283  -2.869977   1.765477   0.460518  -0.001094  -0.001312  -0.248258  -1.454540   2.906528   3.739038  -0.000585  -0.000084  -5.368079   0.371173   0.911600   1.419655  -0.000358   0.000107
